HIERARCHY
ROOT Hips
{
	OFFSET 0.000000 0.000000 0.000000
	CHANNELS 6 Xposition Yposition Zposition Zrotation Yrotation Xrotation 
	JOINT LHipJoint
	{
		OFFSET 0.000000 0.000000 0.000000
		CHANNELS 3 Zrotation Yrotation Xrotation
		JOINT LeftUpLeg
		{
			OFFSET 8.178360 -10.767780 5.035740
			CHANNELS 3 Zrotation Yrotation Xrotation
			JOINT LeftLeg
			{
				OFFSET 14.688660 -40.356780 0.000000
				CHANNELS 3 Zrotation Yrotation Xrotation
				JOINT LeftFoot
				{
					OFFSET 15.373200 -42.237540 0.000000
					CHANNELS 3 Zrotation Yrotation Xrotation
					JOINT LeftToeBase
					{
						OFFSET 0.945840 -2.598660 13.935300
						CHANNELS 3 Zrotation Yrotation Xrotation
						End Site
						{
							OFFSET 0.000000 0.000000 0.000000
						}
					}
				}
			}
		}
	}
	JOINT RHipJoint
	{
		OFFSET 0.000000 0.000000 0.000000
		CHANNELS 3 Zrotation Yrotation Xrotation
		JOINT RightUpLeg
		{
			OFFSET -7.833120 -10.767780 5.035740
			CHANNELS 3 Zrotation Yrotation Xrotation
			JOINT RightLeg
			{
				OFFSET -15.255180 -41.913300 0.000000
				CHANNELS 3 Zrotation Yrotation Xrotation
				JOINT RightFoot
				{
					OFFSET -15.409560 -42.337380 0.000000
					CHANNELS 3 Zrotation Yrotation Xrotation
					JOINT RightToeBase
					{
						OFFSET -0.988380 -2.715540 14.178900
						CHANNELS 3 Zrotation Yrotation Xrotation
						End Site
						{
							OFFSET 0.000000 0.000000 0.000000
						}
					}
				}
			}
		}
	}
	JOINT LowerBack
	{
		OFFSET 0.000000 0.000000 0.000000
		CHANNELS 3 Zrotation Yrotation Xrotation
		JOINT Spine
		{
			OFFSET 0.169620 12.213540 -1.160280
			CHANNELS 3 Zrotation Yrotation Xrotation
			JOINT Spine1
			{
				OFFSET 0.340320 12.293100 -0.256500
				CHANNELS 3 Zrotation Yrotation Xrotation
				JOINT Neck
				{
					OFFSET 0.000000 0.000000 0.000000
					CHANNELS 3 Zrotation Yrotation Xrotation
					JOINT Neck1
					{
						OFFSET -0.325020 10.477440 1.032120
						CHANNELS 3 Zrotation Yrotation Xrotation
						JOINT Head
						{
							OFFSET 0.624420 10.568160 -0.743820
							CHANNELS 3 Zrotation Yrotation Xrotation
							End Site
							{
								OFFSET 0.000000 0.000000 0.000000
							}
						}
					}
				}
				JOINT LeftShoulder
				{
					OFFSET 0.000000 0.000000 0.000000
					CHANNELS 3 Zrotation Yrotation Xrotation
					JOINT LeftArm
					{
						OFFSET 20.174460 7.205340 -1.867260
						CHANNELS 3 Zrotation Yrotation Xrotation
						JOINT LeftForeArm
						{
							OFFSET 29.898000 -0.000000 -0.000000
							CHANNELS 3 Zrotation Yrotation Xrotation
							JOINT LeftHand
							{
								OFFSET 20.901360 -0.000000 -0.000000
								CHANNELS 3 Zrotation Yrotation Xrotation
								JOINT LeftFingerBase
								{
									OFFSET 0.000000 0.000000 0.000000
									CHANNELS 3 Zrotation Yrotation Xrotation
									JOINT LeftHandIndex1
									{
										OFFSET 4.291560 -0.000000 -0.000000
										CHANNELS 3 Zrotation Yrotation Xrotation
										End Site
										{
											OFFSET 0.000000 0.000000 0.000000
										}
									}
								}
								JOINT LThumb
								{
									OFFSET 0.000000 0.000000 0.000000
									CHANNELS 3 Zrotation Yrotation Xrotation
									End Site
									{
										OFFSET 0.000000 0.000000 0.000000
									}
								}
							}
						}
					}
				}
				JOINT RightShoulder
				{
					OFFSET 0.000000 0.000000 0.000000
					CHANNELS 3 Zrotation Yrotation Xrotation
					JOINT RightArm
					{
						OFFSET -18.819600 8.244300 -2.427900
						CHANNELS 3 Zrotation Yrotation Xrotation
						JOINT RightForeArm
						{
							OFFSET -31.451400 -0.000000 -0.000000
							CHANNELS 3 Zrotation Yrotation Xrotation
							JOINT RightHand
							{
								OFFSET -20.665020 -0.000000 -0.000000
								CHANNELS 3 Zrotation Yrotation Xrotation
								JOINT RightFingerBase
								{
									OFFSET 0.000000 0.000000 0.000000
									CHANNELS 3 Zrotation Yrotation Xrotation
									JOINT RightHandIndex1
									{
										OFFSET -3.735180 -0.000000 -0.000000
										CHANNELS 3 Zrotation Yrotation Xrotation
										End Site
										{
											OFFSET 0.000000 0.000000 0.000000
										}
									}
								}
								JOINT RThumb
								{
									OFFSET 0.000000 0.000000 0.000000
									CHANNELS 3 Zrotation Yrotation Xrotation
									End Site
									{
										OFFSET 0.000000 0.000000 0.000000
									}
								}
							}
						}
					}
				}
			}
		}
	}
}
MOTION
Frames:	7
Frame Time:	0.0333333
79.411560 107.420892 -111.440478 -1.723679 0.804449 3.906962 -2.651299 0.563735 1.049097 -15.260528 -5.859348 -22.933196 -0.794689 5.896583 17.062149 0.326476 -1.534014 8.459358 0.001800 -0.277500 -0.762400 0.809674 -1.340111 1.619745 23.745517 -3.932433 11.789770 -0.568392 -5.166670 16.606841 0.570796 -4.053446 3.786736 -0.113800 2.175400 -5.990800 3.802612 2.832254 7.492581 1.026785 4.177712 1.721193 -3.395573 2.145070 -3.224197 -12.542399 -7.808441 -15.183011 6.961498 -8.563387 17.060381 4.121200 -4.329500 12.857800 -6.812444 -0.293137 -1.534485 -84.662273 5.323724 1.282916 12.401372 -17.528689 -2.064626 -1.405378 -1.773585 14.740313 16.546767 19.139164 6.491100 -7.125000 0.000000 0.000000 -11.394900 51.754300 -1.916000 5.198154 1.489506 -0.975121 85.805602 -0.722332 15.428639 -17.588224 25.788464 -4.265826 0.337379 -0.157969 4.199876 -14.604484 9.836149 -2.644000 7.125000 0.000000 0.000000 8.563800 -19.738000 5.226700 
79.938828 107.831784 -108.134712 -0.838826 1.477140 3.783757 -2.723608 0.660937 1.384599 -17.117793 -3.222551 -21.445147 -0.879005 5.454342 16.085589 0.623938 -4.676231 8.769962 0.012500 0.722200 1.984700 0.778066 -1.305929 1.467838 22.470952 -3.595757 8.474387 -1.775863 -7.975170 24.921600 0.334094 -3.772377 8.647230 -0.066900 1.669100 -4.592000 2.765102 2.803340 7.172959 0.881418 4.039383 1.730384 -2.993680 2.065005 -3.138861 -12.817656 -8.113436 -15.464037 7.274227 -8.908325 17.144549 4.232200 -4.455400 13.043000 -6.788738 -0.301038 -1.548862 -84.540047 5.012676 4.004226 12.909164 -18.309889 -2.254738 -1.419356 -2.620026 12.724780 15.349415 28.751711 8.639400 -7.125000 0.000000 0.000000 -18.642700 61.653200 -7.703600 5.169536 1.519360 -0.974234 85.519615 -1.767764 15.385387 -17.433998 25.586151 -4.193898 0.333292 -0.144898 3.959407 -14.348717 9.469448 -2.498500 7.125000 0.000000 0.000000 8.758700 -20.137100 5.269100 
80.383314 108.215088 -105.121668 -0.072717 2.651699 3.520795 -2.795118 0.806729 1.736128 -18.667820 -1.255979 -19.396649 -0.993943 4.798558 14.535787 0.803380 -7.357695 9.327381 0.096000 1.998100 5.500500 0.718863 -1.281780 1.286907 21.438339 -3.155557 4.138121 -3.476807 -10.751238 33.791210 -0.086778 -4.689899 15.958541 -0.001500 0.251600 -0.691400 1.767970 2.333410 7.511725 0.813768 3.342656 1.631339 -2.479258 1.697140 -3.587845 -12.899198 -7.971024 -15.436874 7.428553 -8.683714 17.011355 4.334000 -4.346200 12.972800 -6.761282 -0.353956 -1.559122 -84.759756 4.499889 4.840955 13.480744 -19.133435 -2.488566 -1.253489 -3.022116 11.597557 13.221931 33.061989 8.302700 -7.125000 0.000000 0.000000 -25.762800 65.293000 -13.028100 5.160476 1.556502 -0.975556 85.266892 -2.243420 15.229059 -17.056183 25.065845 -4.010575 0.335492 -0.169631 5.579516 -14.710026 9.608754 -2.604800 7.125000 0.000000 0.000000 8.492200 -19.960500 5.139200 
80.832600 108.498816 -102.193812 1.153114 3.272533 3.311091 -2.871632 1.012387 2.119146 -20.522457 0.544438 -16.434975 -1.192644 3.606517 11.550724 0.864111 -9.784598 9.207456 0.020000 0.912600 2.508300 0.651293 -1.276134 1.107007 19.647702 -2.067636 -0.749336 -5.660041 -13.376280 43.194417 -0.802999 -5.661640 22.711582 -0.315700 -3.612100 9.987800 0.314735 1.994071 7.769556 0.612885 2.761899 1.649604 -1.922932 1.396864 -3.771079 -12.718055 -7.797644 -15.818483 7.344398 -8.420675 16.875656 4.287700 -4.210800 12.951100 -6.725955 -0.445142 -1.554879 -84.629310 3.698078 6.543045 14.089518 -19.925096 -2.782261 -1.194158 -2.062221 10.060978 16.004951 20.726547 6.731000 -7.125000 0.000000 0.000000 -12.741400 53.404300 -2.667600 5.144491 1.572953 -0.979957 85.133128 -2.357055 15.051516 -16.917207 24.872258 -3.941448 0.342475 -0.194682 6.599531 -15.181247 9.988858 -2.801000 7.125000 0.000000 0.000000 8.141100 -19.526900 5.002100 
81.290886 108.637980 -99.255750 2.512229 3.716468 2.916377 -2.888440 1.315388 2.510608 -22.361986 2.024875 -12.097438 -1.423570 1.729433 6.765002 0.773186 -10.415712 10.023275 0.016700 0.835400 2.295900 0.565662 -1.296614 0.957198 17.572650 -1.166208 -5.538185 -7.976029 -15.522183 52.141902 -0.602283 -6.434913 21.298999 0.000000 -0.004400 0.012200 -1.209773 1.651120 7.761437 0.404108 2.172845 1.846829 -1.325953 1.083776 -3.502202 -12.605820 -7.613662 -15.926607 7.206059 -8.144603 16.558946 4.236700 -4.089200 12.775400 -6.696718 -0.546881 -1.531844 -84.114954 2.830941 9.552957 14.548841 -20.570146 -3.007820 -1.230163 -2.020673 9.056107 17.170116 20.201083 7.085900 -7.125000 0.000000 0.000000 -11.251800 53.051800 -2.251500 5.128454 1.561320 -0.973828 84.914796 -2.247529 15.038420 -17.036068 25.054497 -4.002832 0.322906 -0.213071 6.032117 -14.554116 10.849593 -2.910200 7.125000 0.000000 0.000000 8.582600 -18.661000 5.446600 
81.698784 108.717762 -96.455658 3.387167 4.479012 2.606974 -2.804541 1.627381 2.818178 -23.585441 2.884957 -7.574571 -1.513997 -0.155568 1.969544 0.654133 -10.491594 10.790724 0.012600 0.725800 1.994600 0.463913 -1.332464 0.841413 16.156319 -0.631178 -10.188843 -9.876852 -16.917447 58.787589 0.207927 -8.452005 16.314678 -0.087300 -1.905300 5.244000 -2.190144 1.142822 7.837518 0.331827 1.419247 1.912610 -0.766167 0.675920 -3.443920 -12.898106 -7.391181 -15.902458 7.398773 -7.765032 16.617230 4.434900 -3.934500 12.767800 -6.634857 -0.629257 -1.521703 -83.419406 2.090854 13.310527 15.239335 -21.557422 -3.352528 -1.206786 -2.174910 7.423937 17.641093 21.827145 7.819800 -7.125000 0.000000 0.000000 -11.504900 54.900100 -2.825100 5.088423 1.577841 -0.968042 84.658323 -2.359850 15.141480 -17.461994 25.634055 -4.209624 0.304363 -0.177568 5.372626 -13.791361 10.200249 -2.583200 7.125000 0.000000 0.000000 9.150500 -19.396700 5.664400 
82.005906 108.638580 -93.822324 3.740487 5.514657 2.212066 -2.747691 1.745367 2.956817 -23.918746 2.865541 -5.469300 -1.474533 -0.178814 2.032179 0.610018 -11.008265 9.514136 0.027300 1.066500 2.931900 0.405224 -1.313936 0.772501 15.505529 0.038533 -14.385616 -11.010099 -17.646592 62.587978 1.134926 -10.677681 9.997696 -0.093000 -1.967300 5.415300 -2.617870 0.562307 8.453522 0.346403 0.596432 1.811524 -0.399116 0.255768 -3.885110 -12.867196 -7.150224 -15.799742 7.257072 -7.452909 16.817952 4.430200 -3.824100 12.784900 -6.606911 -0.751783 -1.487340 -82.844603 0.762248 14.586284 15.347872 -21.679794 -3.405543 -1.327201 -2.154099 8.754639 18.587323 22.546856 8.506400 -7.125000 0.000000 0.000000 -10.792900 55.837800 -2.894100 5.053865 1.623466 -0.989559 84.503720 -2.954212 15.628008 -18.328922 26.762580 -4.631135 0.305740 -0.133574 5.008738 -13.785769 9.256400 -2.338000 7.125000 0.000000 0.000000 9.185000 -20.398000 5.477600 
